<mxfile host="app.diagrams.net" modified="2023-03-19T05:57:16.200Z" agent="5.0 (Windows NT 10.0; Win64; x64) AppleWebKit/537.36 (KHTML, like Gecko) Chrome/111.0.0.0 Safari/537.36" etag="-nRBQoDdHHGcgWCF2xV9" version="21.0.6" type="github">
  <diagram name="第 1 页" id="-BiWtIMFoqAlZpXaxyfn">
    <mxGraphModel dx="2022" dy="617" grid="1" gridSize="10" guides="1" tooltips="1" connect="1" arrows="1" fold="1" page="1" pageScale="1" pageWidth="827" pageHeight="1169" math="0" shadow="0">
      <root>
        <mxCell id="0" />
        <mxCell id="1" parent="0" />
        <mxCell id="FL3PhiT9PTm7MLn6hLmr-147" value="" style="rounded=0;whiteSpace=wrap;html=1;dashed=1;strokeColor=#6B9455;" vertex="1" parent="1">
          <mxGeometry x="900" y="1010" width="970" height="450" as="geometry" />
        </mxCell>
        <mxCell id="FL3PhiT9PTm7MLn6hLmr-145" value="" style="rounded=0;whiteSpace=wrap;html=1;dashed=1;strokeColor=#6B9455;" vertex="1" parent="1">
          <mxGeometry x="-120" y="1010" width="250" height="340" as="geometry" />
        </mxCell>
        <mxCell id="FL3PhiT9PTm7MLn6hLmr-1" value="Map" style="swimlane;fontStyle=0;childLayout=stackLayout;horizontal=1;startSize=26;fillColor=none;horizontalStack=0;resizeParent=1;resizeParentMax=0;resizeLast=0;collapsible=1;marginBottom=0;whiteSpace=wrap;html=1;" vertex="1" parent="1">
          <mxGeometry x="120" y="200" width="220" height="130" as="geometry" />
        </mxCell>
        <mxCell id="FL3PhiT9PTm7MLn6hLmr-2" value="+&amp;nbsp;mu &lt;span style=&quot;font-family: &amp;quot;JetBrains Mono&amp;quot;, monospace; font-size: 9.8pt; color: rgb(51, 110, 204);&quot;&gt;Mutex&lt;/span&gt;" style="text;strokeColor=none;fillColor=none;align=left;verticalAlign=top;spacingLeft=4;spacingRight=4;overflow=hidden;rotatable=0;points=[[0,0.5],[1,0.5]];portConstraint=eastwest;whiteSpace=wrap;html=1;" vertex="1" parent="FL3PhiT9PTm7MLn6hLmr-1">
          <mxGeometry y="26" width="220" height="26" as="geometry" />
        </mxCell>
        <mxCell id="FL3PhiT9PTm7MLn6hLmr-3" value="+&amp;nbsp;read &lt;span style=&quot;font-family: &amp;quot;JetBrains Mono&amp;quot;, monospace; font-size: 9.8pt; color: rgb(128, 89, 0);&quot;&gt;atomic&lt;/span&gt;&lt;span style=&quot;background-color: rgb(255, 255, 255); color: rgb(8, 8, 8); font-family: &amp;quot;JetBrains Mono&amp;quot;, monospace; font-size: 9.8pt;&quot;&gt;.&lt;/span&gt;&lt;span style=&quot;font-family: &amp;quot;JetBrains Mono&amp;quot;, monospace; font-size: 9.8pt; color: rgb(51, 110, 204);&quot;&gt;Value&lt;/span&gt;" style="text;strokeColor=none;fillColor=none;align=left;verticalAlign=top;spacingLeft=4;spacingRight=4;overflow=hidden;rotatable=0;points=[[0,0.5],[1,0.5]];portConstraint=eastwest;whiteSpace=wrap;html=1;" vertex="1" parent="FL3PhiT9PTm7MLn6hLmr-1">
          <mxGeometry y="52" width="220" height="26" as="geometry" />
        </mxCell>
        <mxCell id="FL3PhiT9PTm7MLn6hLmr-4" value="+&amp;nbsp;dirty &lt;span style=&quot;font-family: &amp;quot;JetBrains Mono&amp;quot;, monospace; font-size: 9.8pt; color: rgb(0, 51, 179);&quot;&gt;map&lt;/span&gt;&lt;span style=&quot;background-color: rgb(255, 255, 255); color: rgb(8, 8, 8); font-family: &amp;quot;JetBrains Mono&amp;quot;, monospace; font-size: 9.8pt;&quot;&gt;[&lt;/span&gt;&lt;span style=&quot;font-family: &amp;quot;JetBrains Mono&amp;quot;, monospace; font-size: 9.8pt; color: rgb(0, 51, 179);&quot;&gt;interface&lt;/span&gt;&lt;span style=&quot;background-color: rgb(255, 255, 255); color: rgb(8, 8, 8); font-family: &amp;quot;JetBrains Mono&amp;quot;, monospace; font-size: 9.8pt;&quot;&gt;{}]*&lt;/span&gt;&lt;span style=&quot;font-family: &amp;quot;JetBrains Mono&amp;quot;, monospace; font-size: 9.8pt; color: rgb(51, 110, 204);&quot;&gt;entry&lt;/span&gt;" style="text;strokeColor=none;fillColor=none;align=left;verticalAlign=top;spacingLeft=4;spacingRight=4;overflow=hidden;rotatable=0;points=[[0,0.5],[1,0.5]];portConstraint=eastwest;whiteSpace=wrap;html=1;" vertex="1" parent="FL3PhiT9PTm7MLn6hLmr-1">
          <mxGeometry y="78" width="220" height="26" as="geometry" />
        </mxCell>
        <mxCell id="FL3PhiT9PTm7MLn6hLmr-5" value="+&amp;nbsp;misses &lt;span style=&quot;font-family: &amp;quot;JetBrains Mono&amp;quot;, monospace; font-size: 9.8pt; color: rgb(0, 47, 166);&quot;&gt;int&lt;/span&gt;" style="text;strokeColor=none;fillColor=none;align=left;verticalAlign=top;spacingLeft=4;spacingRight=4;overflow=hidden;rotatable=0;points=[[0,0.5],[1,0.5]];portConstraint=eastwest;whiteSpace=wrap;html=1;" vertex="1" parent="FL3PhiT9PTm7MLn6hLmr-1">
          <mxGeometry y="104" width="220" height="26" as="geometry" />
        </mxCell>
        <mxCell id="FL3PhiT9PTm7MLn6hLmr-19" value="" style="edgeStyle=orthogonalEdgeStyle;rounded=0;orthogonalLoop=1;jettySize=auto;html=1;entryX=1;entryY=0.25;entryDx=0;entryDy=0;" edge="1" parent="1" source="FL3PhiT9PTm7MLn6hLmr-6" target="FL3PhiT9PTm7MLn6hLmr-11">
          <mxGeometry relative="1" as="geometry">
            <mxPoint x="769.9999999999998" y="289" as="targetPoint" />
            <Array as="points">
              <mxPoint x="680" y="289" />
              <mxPoint x="680" y="413" />
            </Array>
          </mxGeometry>
        </mxCell>
        <mxCell id="FL3PhiT9PTm7MLn6hLmr-6" value="readOnly" style="swimlane;fontStyle=0;childLayout=stackLayout;horizontal=1;startSize=26;fillColor=none;horizontalStack=0;resizeParent=1;resizeParentMax=0;resizeLast=0;collapsible=1;marginBottom=0;whiteSpace=wrap;html=1;" vertex="1" parent="1">
          <mxGeometry x="400" y="250" width="220" height="78" as="geometry" />
        </mxCell>
        <mxCell id="FL3PhiT9PTm7MLn6hLmr-9" value="+ m&amp;nbsp;&lt;span style=&quot;font-family: &amp;quot;JetBrains Mono&amp;quot;, monospace; font-size: 9.8pt; color: rgb(0, 51, 179);&quot;&gt;map&lt;/span&gt;&lt;span style=&quot;background-color: rgb(255, 255, 255); color: rgb(8, 8, 8); font-family: &amp;quot;JetBrains Mono&amp;quot;, monospace; font-size: 9.8pt;&quot;&gt;[&lt;/span&gt;&lt;span style=&quot;font-family: &amp;quot;JetBrains Mono&amp;quot;, monospace; font-size: 9.8pt; color: rgb(0, 51, 179);&quot;&gt;interface&lt;/span&gt;&lt;span style=&quot;background-color: rgb(255, 255, 255); color: rgb(8, 8, 8); font-family: &amp;quot;JetBrains Mono&amp;quot;, monospace; font-size: 9.8pt;&quot;&gt;{}]*&lt;/span&gt;&lt;span style=&quot;font-family: &amp;quot;JetBrains Mono&amp;quot;, monospace; font-size: 9.8pt; color: rgb(51, 110, 204);&quot;&gt;entry&lt;/span&gt;" style="text;strokeColor=none;fillColor=none;align=left;verticalAlign=top;spacingLeft=4;spacingRight=4;overflow=hidden;rotatable=0;points=[[0,0.5],[1,0.5]];portConstraint=eastwest;whiteSpace=wrap;html=1;" vertex="1" parent="FL3PhiT9PTm7MLn6hLmr-6">
          <mxGeometry y="26" width="220" height="26" as="geometry" />
        </mxCell>
        <mxCell id="FL3PhiT9PTm7MLn6hLmr-10" value="+ amended&amp;nbsp;&lt;span style=&quot;font-family: &amp;quot;JetBrains Mono&amp;quot;, monospace; font-size: 9.8pt; color: rgb(0, 47, 166);&quot;&gt;bool&lt;/span&gt;" style="text;strokeColor=none;fillColor=none;align=left;verticalAlign=top;spacingLeft=4;spacingRight=4;overflow=hidden;rotatable=0;points=[[0,0.5],[1,0.5]];portConstraint=eastwest;whiteSpace=wrap;html=1;" vertex="1" parent="FL3PhiT9PTm7MLn6hLmr-6">
          <mxGeometry y="52" width="220" height="26" as="geometry" />
        </mxCell>
        <mxCell id="FL3PhiT9PTm7MLn6hLmr-11" value="entry" style="swimlane;fontStyle=0;childLayout=stackLayout;horizontal=1;startSize=26;fillColor=none;horizontalStack=0;resizeParent=1;resizeParentMax=0;resizeLast=0;collapsible=1;marginBottom=0;whiteSpace=wrap;html=1;" vertex="1" parent="1">
          <mxGeometry x="440" y="400" width="220" height="52" as="geometry" />
        </mxCell>
        <mxCell id="FL3PhiT9PTm7MLn6hLmr-12" value="+ p &lt;font face=&quot;JetBrains Mono, monospace&quot; color=&quot;#0033b3&quot;&gt;&lt;span style=&quot;font-size: 13.0667px;&quot;&gt;unsafe.Pointer&lt;/span&gt;&lt;/font&gt;" style="text;strokeColor=none;fillColor=none;align=left;verticalAlign=top;spacingLeft=4;spacingRight=4;overflow=hidden;rotatable=0;points=[[0,0.5],[1,0.5]];portConstraint=eastwest;whiteSpace=wrap;html=1;" vertex="1" parent="FL3PhiT9PTm7MLn6hLmr-11">
          <mxGeometry y="26" width="220" height="26" as="geometry" />
        </mxCell>
        <mxCell id="FL3PhiT9PTm7MLn6hLmr-14" value="p指向用户存储的value&lt;br&gt;&lt;br&gt;p有三种值：&lt;br&gt;1、nil：entry已被删除，m.dirty == nil 或者 m.dirty[key] = e；&lt;br&gt;2、expunged：entry已被删除，m.dirty != nil 并且 这个entry不存在与m.dirty中；&lt;br&gt;3、正常值：这个entry被记录在m.read.m[key]，如果 m.dirty != nil，那也被记录在m.dirty[key]。" style="text;html=1;align=left;verticalAlign=middle;whiteSpace=wrap;rounded=0;sketch=1;curveFitting=1;jiggle=2;strokeColor=#97D077;" vertex="1" parent="1">
          <mxGeometry x="440" y="480" width="350" height="135" as="geometry" />
        </mxCell>
        <mxCell id="FL3PhiT9PTm7MLn6hLmr-15" value="" style="endArrow=classic;html=1;rounded=0;exitX=1;exitY=0.5;exitDx=0;exitDy=0;" edge="1" parent="1" source="FL3PhiT9PTm7MLn6hLmr-3">
          <mxGeometry width="50" height="50" relative="1" as="geometry">
            <mxPoint x="280" y="400" as="sourcePoint" />
            <mxPoint x="400" y="265" as="targetPoint" />
          </mxGeometry>
        </mxCell>
        <mxCell id="FL3PhiT9PTm7MLn6hLmr-20" value="" style="edgeStyle=orthogonalEdgeStyle;rounded=0;orthogonalLoop=1;jettySize=auto;html=1;entryX=0;entryY=0.25;entryDx=0;entryDy=0;exitX=1;exitY=0.5;exitDx=0;exitDy=0;" edge="1" parent="1" source="FL3PhiT9PTm7MLn6hLmr-4" target="FL3PhiT9PTm7MLn6hLmr-11">
          <mxGeometry relative="1" as="geometry">
            <Array as="points">
              <mxPoint x="370" y="291" />
              <mxPoint x="370" y="413" />
            </Array>
          </mxGeometry>
        </mxCell>
        <mxCell id="FL3PhiT9PTm7MLn6hLmr-22" value="mu：锁&lt;br&gt;&lt;br&gt;read：存放的是readOnly，支持并发读安全。当然，写的时候也是需要使用mu锁的。&lt;br&gt;&lt;br&gt;dirty：存脏数据（跟read相比）&lt;br&gt;&lt;br&gt;misses：计数器。read读取失败时，会尝试从dirty中读取，这时misses加1。misses达到阈值时，进行read和dirty的数据同步。" style="text;html=1;align=left;verticalAlign=middle;whiteSpace=wrap;rounded=0;sketch=1;curveFitting=1;jiggle=2;strokeColor=#97D077;" vertex="1" parent="1">
          <mxGeometry x="-250" y="200" width="350" height="135" as="geometry" />
        </mxCell>
        <mxCell id="FL3PhiT9PTm7MLn6hLmr-23" value="amended：标志位，如果一些key在dirty中，但不在read中，则设置为true。" style="text;html=1;align=left;verticalAlign=middle;whiteSpace=wrap;rounded=0;sketch=1;curveFitting=1;jiggle=2;strokeColor=#97D077;" vertex="1" parent="1">
          <mxGeometry x="400" y="180" width="350" height="55" as="geometry" />
        </mxCell>
        <mxCell id="FL3PhiT9PTm7MLn6hLmr-26" value="" style="edgeStyle=orthogonalEdgeStyle;rounded=0;orthogonalLoop=1;jettySize=auto;html=1;fontFamily=Comic Sans MS;fontSize=14;" edge="1" parent="1" source="FL3PhiT9PTm7MLn6hLmr-24" target="FL3PhiT9PTm7MLn6hLmr-25">
          <mxGeometry relative="1" as="geometry" />
        </mxCell>
        <mxCell id="FL3PhiT9PTm7MLn6hLmr-24" value="Load" style="strokeWidth=2;html=1;shape=mxgraph.flowchart.start_1;whiteSpace=wrap;fontFamily=Comic Sans MS;fontSize=14;fontStyle=1" vertex="1" parent="1">
          <mxGeometry x="-250" y="750" width="100" height="60" as="geometry" />
        </mxCell>
        <mxCell id="FL3PhiT9PTm7MLn6hLmr-28" value="" style="edgeStyle=orthogonalEdgeStyle;rounded=0;orthogonalLoop=1;jettySize=auto;html=1;" edge="1" parent="1" source="FL3PhiT9PTm7MLn6hLmr-25" target="FL3PhiT9PTm7MLn6hLmr-27">
          <mxGeometry relative="1" as="geometry" />
        </mxCell>
        <mxCell id="FL3PhiT9PTm7MLn6hLmr-25" value="e, ok := read.m[key]" style="whiteSpace=wrap;html=1;strokeWidth=2;fontFamily=Comic Sans MS;fontSize=14;fillColor=#fff2cc;strokeColor=#d6b656;" vertex="1" parent="1">
          <mxGeometry x="-280" y="850" width="160" height="30" as="geometry" />
        </mxCell>
        <mxCell id="FL3PhiT9PTm7MLn6hLmr-30" value="" style="edgeStyle=orthogonalEdgeStyle;rounded=0;orthogonalLoop=1;jettySize=auto;html=1;" edge="1" parent="1" source="FL3PhiT9PTm7MLn6hLmr-27" target="FL3PhiT9PTm7MLn6hLmr-29">
          <mxGeometry relative="1" as="geometry" />
        </mxCell>
        <mxCell id="FL3PhiT9PTm7MLn6hLmr-32" value="" style="edgeStyle=orthogonalEdgeStyle;rounded=0;orthogonalLoop=1;jettySize=auto;html=1;" edge="1" parent="1" source="FL3PhiT9PTm7MLn6hLmr-27" target="FL3PhiT9PTm7MLn6hLmr-31">
          <mxGeometry relative="1" as="geometry" />
        </mxCell>
        <mxCell id="FL3PhiT9PTm7MLn6hLmr-27" value="ok ?" style="rhombus;whiteSpace=wrap;html=1;fontSize=14;fontFamily=Comic Sans MS;strokeWidth=2;" vertex="1" parent="1">
          <mxGeometry x="-240" y="930" width="80" height="55" as="geometry" />
        </mxCell>
        <mxCell id="FL3PhiT9PTm7MLn6hLmr-29" value="return e.load()" style="strokeWidth=2;html=1;shape=mxgraph.flowchart.start_1;whiteSpace=wrap;fontFamily=Comic Sans MS;fontSize=14;" vertex="1" parent="1">
          <mxGeometry x="-260" y="1470" width="120" height="60" as="geometry" />
        </mxCell>
        <mxCell id="FL3PhiT9PTm7MLn6hLmr-38" value="" style="edgeStyle=orthogonalEdgeStyle;rounded=0;orthogonalLoop=1;jettySize=auto;html=1;" edge="1" parent="1" source="FL3PhiT9PTm7MLn6hLmr-31" target="FL3PhiT9PTm7MLn6hLmr-37">
          <mxGeometry relative="1" as="geometry" />
        </mxCell>
        <mxCell id="FL3PhiT9PTm7MLn6hLmr-59" value="" style="edgeStyle=orthogonalEdgeStyle;rounded=0;orthogonalLoop=1;jettySize=auto;html=1;entryX=0.5;entryY=0;entryDx=0;entryDy=0;entryPerimeter=0;" edge="1" parent="1" source="FL3PhiT9PTm7MLn6hLmr-31" target="FL3PhiT9PTm7MLn6hLmr-56">
          <mxGeometry relative="1" as="geometry">
            <mxPoint x="135" y="957.5" as="targetPoint" />
          </mxGeometry>
        </mxCell>
        <mxCell id="FL3PhiT9PTm7MLn6hLmr-31" value="read.amended?" style="rhombus;whiteSpace=wrap;html=1;fontSize=14;fontFamily=Comic Sans MS;strokeWidth=2;" vertex="1" parent="1">
          <mxGeometry x="-80" y="930" width="130" height="55" as="geometry" />
        </mxCell>
        <mxCell id="FL3PhiT9PTm7MLn6hLmr-33" value="true" style="text;html=1;strokeColor=none;fillColor=none;align=center;verticalAlign=middle;whiteSpace=wrap;rounded=0;fontFamily=Comic Sans MS;fontSize=14;" vertex="1" parent="1">
          <mxGeometry x="-260" y="980" width="60" height="30" as="geometry" />
        </mxCell>
        <mxCell id="FL3PhiT9PTm7MLn6hLmr-34" value="false" style="text;html=1;strokeColor=none;fillColor=none;align=center;verticalAlign=middle;whiteSpace=wrap;rounded=0;fontFamily=Comic Sans MS;fontSize=14;" vertex="1" parent="1">
          <mxGeometry x="-160" y="930" width="60" height="30" as="geometry" />
        </mxCell>
        <mxCell id="FL3PhiT9PTm7MLn6hLmr-45" value="" style="edgeStyle=orthogonalEdgeStyle;rounded=0;orthogonalLoop=1;jettySize=auto;html=1;entryX=0.5;entryY=0;entryDx=0;entryDy=0;" edge="1" parent="1" source="FL3PhiT9PTm7MLn6hLmr-37" target="FL3PhiT9PTm7MLn6hLmr-46">
          <mxGeometry relative="1" as="geometry">
            <mxPoint x="-15" y="1135" as="targetPoint" />
          </mxGeometry>
        </mxCell>
        <mxCell id="FL3PhiT9PTm7MLn6hLmr-37" value="e, ok := read.m[key]" style="whiteSpace=wrap;html=1;fontSize=14;fontFamily=Comic Sans MS;strokeWidth=2;fillColor=#fff2cc;strokeColor=#d6b656;" vertex="1" parent="1">
          <mxGeometry x="-90" y="1040" width="150" height="30" as="geometry" />
        </mxCell>
        <mxCell id="FL3PhiT9PTm7MLn6hLmr-41" value="false" style="text;html=1;strokeColor=none;fillColor=none;align=center;verticalAlign=middle;whiteSpace=wrap;rounded=0;fontFamily=Comic Sans MS;fontSize=14;" vertex="1" parent="1">
          <mxGeometry x="50" y="930" width="60" height="30" as="geometry" />
        </mxCell>
        <mxCell id="FL3PhiT9PTm7MLn6hLmr-43" value="true" style="text;html=1;strokeColor=none;fillColor=none;align=center;verticalAlign=middle;whiteSpace=wrap;rounded=0;fontFamily=Comic Sans MS;fontSize=14;" vertex="1" parent="1">
          <mxGeometry x="-80" y="985" width="60" height="30" as="geometry" />
        </mxCell>
        <mxCell id="FL3PhiT9PTm7MLn6hLmr-48" value="" style="edgeStyle=orthogonalEdgeStyle;rounded=0;orthogonalLoop=1;jettySize=auto;html=1;" edge="1" parent="1" source="FL3PhiT9PTm7MLn6hLmr-46" target="FL3PhiT9PTm7MLn6hLmr-47">
          <mxGeometry relative="1" as="geometry" />
        </mxCell>
        <mxCell id="FL3PhiT9PTm7MLn6hLmr-63" value="" style="edgeStyle=orthogonalEdgeStyle;rounded=0;orthogonalLoop=1;jettySize=auto;html=1;" edge="1" parent="1" source="FL3PhiT9PTm7MLn6hLmr-46">
          <mxGeometry relative="1" as="geometry">
            <mxPoint x="-10" y="1320" as="targetPoint" />
            <Array as="points">
              <mxPoint x="100" y="1145" />
              <mxPoint x="100" y="1320" />
            </Array>
          </mxGeometry>
        </mxCell>
        <mxCell id="FL3PhiT9PTm7MLn6hLmr-46" value="!ok &amp;amp;&amp;amp; read.amended?" style="rhombus;whiteSpace=wrap;html=1;fontSize=14;fontFamily=Comic Sans MS;strokeWidth=2;" vertex="1" parent="1">
          <mxGeometry x="-110" y="1110" width="190" height="70" as="geometry" />
        </mxCell>
        <mxCell id="FL3PhiT9PTm7MLn6hLmr-50" value="" style="edgeStyle=orthogonalEdgeStyle;rounded=0;orthogonalLoop=1;jettySize=auto;html=1;" edge="1" parent="1" source="FL3PhiT9PTm7MLn6hLmr-47" target="FL3PhiT9PTm7MLn6hLmr-49">
          <mxGeometry relative="1" as="geometry" />
        </mxCell>
        <mxCell id="FL3PhiT9PTm7MLn6hLmr-47" value="e, ok := dirty[key]" style="whiteSpace=wrap;html=1;fontSize=14;fontFamily=Comic Sans MS;strokeWidth=2;" vertex="1" parent="1">
          <mxGeometry x="-100" y="1220" width="170" height="30" as="geometry" />
        </mxCell>
        <mxCell id="FL3PhiT9PTm7MLn6hLmr-52" value="" style="edgeStyle=orthogonalEdgeStyle;rounded=0;orthogonalLoop=1;jettySize=auto;html=1;" edge="1" parent="1" source="FL3PhiT9PTm7MLn6hLmr-49" target="FL3PhiT9PTm7MLn6hLmr-51">
          <mxGeometry relative="1" as="geometry" />
        </mxCell>
        <mxCell id="FL3PhiT9PTm7MLn6hLmr-49" value="update misses" style="whiteSpace=wrap;html=1;fontSize=14;fontFamily=Comic Sans MS;strokeWidth=2;fillColor=#e1d5e7;strokeColor=#9673a6;" vertex="1" parent="1">
          <mxGeometry x="-75" y="1280" width="120" height="30" as="geometry" />
        </mxCell>
        <mxCell id="FL3PhiT9PTm7MLn6hLmr-54" value="" style="edgeStyle=orthogonalEdgeStyle;rounded=0;orthogonalLoop=1;jettySize=auto;html=1;" edge="1" parent="1" source="FL3PhiT9PTm7MLn6hLmr-51">
          <mxGeometry relative="1" as="geometry">
            <mxPoint x="-200" y="1440" as="targetPoint" />
            <Array as="points">
              <mxPoint x="-15" y="1440" />
              <mxPoint x="-200" y="1440" />
            </Array>
          </mxGeometry>
        </mxCell>
        <mxCell id="FL3PhiT9PTm7MLn6hLmr-57" value="" style="edgeStyle=orthogonalEdgeStyle;rounded=0;orthogonalLoop=1;jettySize=auto;html=1;" edge="1" parent="1" source="FL3PhiT9PTm7MLn6hLmr-51" target="FL3PhiT9PTm7MLn6hLmr-56">
          <mxGeometry relative="1" as="geometry" />
        </mxCell>
        <mxCell id="FL3PhiT9PTm7MLn6hLmr-51" value="ok ?" style="rhombus;whiteSpace=wrap;html=1;fontSize=14;fontFamily=Comic Sans MS;strokeWidth=2;" vertex="1" parent="1">
          <mxGeometry x="-55" y="1360" width="80" height="55" as="geometry" />
        </mxCell>
        <mxCell id="FL3PhiT9PTm7MLn6hLmr-55" value="true" style="text;html=1;strokeColor=none;fillColor=none;align=center;verticalAlign=middle;whiteSpace=wrap;rounded=0;fontFamily=Comic Sans MS;fontSize=14;" vertex="1" parent="1">
          <mxGeometry x="-75" y="1405" width="60" height="30" as="geometry" />
        </mxCell>
        <mxCell id="FL3PhiT9PTm7MLn6hLmr-56" value="return nil, false" style="strokeWidth=2;html=1;shape=mxgraph.flowchart.start_1;whiteSpace=wrap;fontFamily=Comic Sans MS;fontSize=14;" vertex="1" parent="1">
          <mxGeometry x="100" y="1357.5" width="120" height="60" as="geometry" />
        </mxCell>
        <mxCell id="FL3PhiT9PTm7MLn6hLmr-60" value="double check" style="text;html=1;strokeColor=none;fillColor=none;align=center;verticalAlign=middle;whiteSpace=wrap;rounded=0;fontColor=#D6B656;fontFamily=Comic Sans MS;fontSize=14;fontStyle=1" vertex="1" parent="1">
          <mxGeometry x="60" y="1040" width="90" height="30" as="geometry" />
        </mxCell>
        <mxCell id="FL3PhiT9PTm7MLn6hLmr-61" value="true" style="text;html=1;strokeColor=none;fillColor=none;align=center;verticalAlign=middle;whiteSpace=wrap;rounded=0;fontFamily=Comic Sans MS;fontSize=14;" vertex="1" parent="1">
          <mxGeometry x="-20" y="1180" width="60" height="30" as="geometry" />
        </mxCell>
        <mxCell id="FL3PhiT9PTm7MLn6hLmr-64" value="false" style="text;html=1;strokeColor=none;fillColor=none;align=center;verticalAlign=middle;whiteSpace=wrap;rounded=0;fontFamily=Comic Sans MS;fontSize=14;" vertex="1" parent="1">
          <mxGeometry x="70" y="1110" width="60" height="30" as="geometry" />
        </mxCell>
        <mxCell id="FL3PhiT9PTm7MLn6hLmr-66" value="if m.misses &amp;gt;= len(m.dirty) do&lt;br style=&quot;font-size: 14px;&quot;&gt;&lt;br style=&quot;font-size: 14px;&quot;&gt;m.read.Store(readOnly{m:m.dirty})&lt;br style=&quot;font-size: 14px;&quot;&gt;m.dirty = nil&lt;br style=&quot;font-size: 14px;&quot;&gt;m.misses = 0" style="text;html=1;strokeColor=#82b366;fillColor=#d5e8d4;align=left;verticalAlign=middle;whiteSpace=wrap;rounded=0;fontFamily=Comic Sans MS;fontSize=14;fontStyle=0;sketch=1;curveFitting=1;jiggle=2;" vertex="1" parent="1">
          <mxGeometry x="260" y="1270" width="240" height="100" as="geometry" />
        </mxCell>
        <mxCell id="FL3PhiT9PTm7MLn6hLmr-67" value="" style="endArrow=classic;html=1;rounded=0;entryX=0;entryY=0.25;entryDx=0;entryDy=0;exitX=1;exitY=0.5;exitDx=0;exitDy=0;dashed=1;" edge="1" parent="1" source="FL3PhiT9PTm7MLn6hLmr-49" target="FL3PhiT9PTm7MLn6hLmr-66">
          <mxGeometry width="50" height="50" relative="1" as="geometry">
            <mxPoint x="170" y="1330" as="sourcePoint" />
            <mxPoint x="220" y="1280" as="targetPoint" />
          </mxGeometry>
        </mxCell>
        <mxCell id="FL3PhiT9PTm7MLn6hLmr-68" value="mu.Lock()" style="text;html=1;strokeColor=none;fillColor=none;align=center;verticalAlign=middle;whiteSpace=wrap;rounded=0;fontFamily=Comic Sans MS;fontSize=14;fontColor=#6B9455;fontStyle=0" vertex="1" parent="1">
          <mxGeometry x="-10" y="1010" width="80" height="30" as="geometry" />
        </mxCell>
        <mxCell id="FL3PhiT9PTm7MLn6hLmr-69" value="mu.Unlock()" style="text;html=1;strokeColor=none;fillColor=none;align=center;verticalAlign=middle;whiteSpace=wrap;rounded=0;fontFamily=Comic Sans MS;fontSize=14;fontColor=#6B9455;fontStyle=0" vertex="1" parent="1">
          <mxGeometry x="-10" y="1320" width="80" height="30" as="geometry" />
        </mxCell>
        <mxCell id="FL3PhiT9PTm7MLn6hLmr-75" value="" style="edgeStyle=orthogonalEdgeStyle;rounded=0;orthogonalLoop=1;jettySize=auto;html=1;fontFamily=Comic Sans MS;fontSize=14;" edge="1" parent="1" source="FL3PhiT9PTm7MLn6hLmr-76" target="FL3PhiT9PTm7MLn6hLmr-78">
          <mxGeometry relative="1" as="geometry" />
        </mxCell>
        <mxCell id="FL3PhiT9PTm7MLn6hLmr-76" value="Store" style="strokeWidth=2;html=1;shape=mxgraph.flowchart.start_1;whiteSpace=wrap;fontFamily=Comic Sans MS;fontSize=14;fontStyle=1" vertex="1" parent="1">
          <mxGeometry x="740" y="750" width="100" height="60" as="geometry" />
        </mxCell>
        <mxCell id="FL3PhiT9PTm7MLn6hLmr-77" value="" style="edgeStyle=orthogonalEdgeStyle;rounded=0;orthogonalLoop=1;jettySize=auto;html=1;" edge="1" parent="1" source="FL3PhiT9PTm7MLn6hLmr-78" target="FL3PhiT9PTm7MLn6hLmr-80">
          <mxGeometry relative="1" as="geometry" />
        </mxCell>
        <mxCell id="FL3PhiT9PTm7MLn6hLmr-78" value="e, ok := read.m[key]" style="whiteSpace=wrap;html=1;strokeWidth=2;fontFamily=Comic Sans MS;fontSize=14;fillColor=#fff2cc;strokeColor=#d6b656;" vertex="1" parent="1">
          <mxGeometry x="710" y="850" width="160" height="30" as="geometry" />
        </mxCell>
        <mxCell id="FL3PhiT9PTm7MLn6hLmr-89" value="" style="edgeStyle=orthogonalEdgeStyle;rounded=0;orthogonalLoop=1;jettySize=auto;html=1;" edge="1" parent="1" source="FL3PhiT9PTm7MLn6hLmr-80" target="FL3PhiT9PTm7MLn6hLmr-88">
          <mxGeometry relative="1" as="geometry" />
        </mxCell>
        <mxCell id="FL3PhiT9PTm7MLn6hLmr-112" value="" style="edgeStyle=orthogonalEdgeStyle;rounded=0;orthogonalLoop=1;jettySize=auto;html=1;entryX=0.5;entryY=0;entryDx=0;entryDy=0;" edge="1" parent="1" source="FL3PhiT9PTm7MLn6hLmr-80" target="FL3PhiT9PTm7MLn6hLmr-94">
          <mxGeometry relative="1" as="geometry">
            <mxPoint x="890" y="957.5" as="targetPoint" />
          </mxGeometry>
        </mxCell>
        <mxCell id="FL3PhiT9PTm7MLn6hLmr-80" value="ok ?" style="rhombus;whiteSpace=wrap;html=1;fontSize=14;fontFamily=Comic Sans MS;strokeWidth=2;" vertex="1" parent="1">
          <mxGeometry x="750" y="930" width="80" height="55" as="geometry" />
        </mxCell>
        <mxCell id="FL3PhiT9PTm7MLn6hLmr-81" value="true" style="text;html=1;strokeColor=none;fillColor=none;align=center;verticalAlign=middle;whiteSpace=wrap;rounded=0;fontFamily=Comic Sans MS;fontSize=14;" vertex="1" parent="1">
          <mxGeometry x="730" y="985" width="60" height="30" as="geometry" />
        </mxCell>
        <mxCell id="FL3PhiT9PTm7MLn6hLmr-82" value="false" style="text;html=1;strokeColor=none;fillColor=none;align=center;verticalAlign=middle;whiteSpace=wrap;rounded=0;fontFamily=Comic Sans MS;fontSize=14;" vertex="1" parent="1">
          <mxGeometry x="870" y="1027.5" width="60" height="30" as="geometry" />
        </mxCell>
        <mxCell id="FL3PhiT9PTm7MLn6hLmr-84" value="return" style="strokeWidth=2;html=1;shape=mxgraph.flowchart.start_1;whiteSpace=wrap;fontFamily=Comic Sans MS;fontSize=14;" vertex="1" parent="1">
          <mxGeometry x="730" y="1490" width="120" height="60" as="geometry" />
        </mxCell>
        <mxCell id="FL3PhiT9PTm7MLn6hLmr-90" value="" style="edgeStyle=orthogonalEdgeStyle;rounded=0;orthogonalLoop=1;jettySize=auto;html=1;" edge="1" parent="1" source="FL3PhiT9PTm7MLn6hLmr-88" target="FL3PhiT9PTm7MLn6hLmr-84">
          <mxGeometry relative="1" as="geometry" />
        </mxCell>
        <mxCell id="FL3PhiT9PTm7MLn6hLmr-110" value="" style="edgeStyle=orthogonalEdgeStyle;rounded=0;orthogonalLoop=1;jettySize=auto;html=1;" edge="1" parent="1" source="FL3PhiT9PTm7MLn6hLmr-88" target="FL3PhiT9PTm7MLn6hLmr-94">
          <mxGeometry relative="1" as="geometry" />
        </mxCell>
        <mxCell id="FL3PhiT9PTm7MLn6hLmr-88" value="e.tryStore(&amp;amp;value) ?" style="rhombus;whiteSpace=wrap;html=1;fontSize=14;fontFamily=Comic Sans MS;strokeWidth=2;" vertex="1" parent="1">
          <mxGeometry x="700" y="1027.5" width="180" height="55" as="geometry" />
        </mxCell>
        <mxCell id="FL3PhiT9PTm7MLn6hLmr-91" value="true" style="text;html=1;strokeColor=none;fillColor=none;align=center;verticalAlign=middle;whiteSpace=wrap;rounded=0;fontFamily=Comic Sans MS;fontSize=14;" vertex="1" parent="1">
          <mxGeometry x="730" y="1080" width="60" height="30" as="geometry" />
        </mxCell>
        <mxCell id="FL3PhiT9PTm7MLn6hLmr-93" value="" style="edgeStyle=orthogonalEdgeStyle;rounded=0;orthogonalLoop=1;jettySize=auto;html=1;entryX=0.5;entryY=0;entryDx=0;entryDy=0;" edge="1" parent="1" source="FL3PhiT9PTm7MLn6hLmr-94" target="FL3PhiT9PTm7MLn6hLmr-96">
          <mxGeometry relative="1" as="geometry">
            <mxPoint x="1025" y="1135" as="targetPoint" />
          </mxGeometry>
        </mxCell>
        <mxCell id="FL3PhiT9PTm7MLn6hLmr-94" value="e, ok := read.m[key]" style="whiteSpace=wrap;html=1;fontSize=14;fontFamily=Comic Sans MS;strokeWidth=2;fillColor=#fff2cc;strokeColor=#d6b656;" vertex="1" parent="1">
          <mxGeometry x="950" y="1040" width="150" height="30" as="geometry" />
        </mxCell>
        <mxCell id="FL3PhiT9PTm7MLn6hLmr-104" value="" style="edgeStyle=orthogonalEdgeStyle;rounded=0;orthogonalLoop=1;jettySize=auto;html=1;" edge="1" parent="1" source="FL3PhiT9PTm7MLn6hLmr-96" target="FL3PhiT9PTm7MLn6hLmr-101">
          <mxGeometry relative="1" as="geometry" />
        </mxCell>
        <mxCell id="FL3PhiT9PTm7MLn6hLmr-118" value="" style="edgeStyle=orthogonalEdgeStyle;rounded=0;orthogonalLoop=1;jettySize=auto;html=1;" edge="1" parent="1" source="FL3PhiT9PTm7MLn6hLmr-96" target="FL3PhiT9PTm7MLn6hLmr-114">
          <mxGeometry relative="1" as="geometry" />
        </mxCell>
        <mxCell id="FL3PhiT9PTm7MLn6hLmr-96" value="ok?" style="rhombus;whiteSpace=wrap;html=1;fontSize=14;fontFamily=Comic Sans MS;strokeWidth=2;" vertex="1" parent="1">
          <mxGeometry x="980" y="1120" width="90" height="50" as="geometry" />
        </mxCell>
        <mxCell id="FL3PhiT9PTm7MLn6hLmr-107" value="" style="edgeStyle=orthogonalEdgeStyle;rounded=0;orthogonalLoop=1;jettySize=auto;html=1;exitX=0.5;exitY=1;exitDx=0;exitDy=0;" edge="1" parent="1" source="FL3PhiT9PTm7MLn6hLmr-97">
          <mxGeometry relative="1" as="geometry">
            <mxPoint x="1175" y="1370" as="targetPoint" />
            <Array as="points">
              <mxPoint x="1175" y="1370" />
            </Array>
          </mxGeometry>
        </mxCell>
        <mxCell id="FL3PhiT9PTm7MLn6hLmr-97" value="m.dirty[key] = e" style="whiteSpace=wrap;html=1;fontSize=14;fontFamily=Comic Sans MS;strokeWidth=2;" vertex="1" parent="1">
          <mxGeometry x="1090" y="1290" width="170" height="30" as="geometry" />
        </mxCell>
        <mxCell id="FL3PhiT9PTm7MLn6hLmr-98" value="double check" style="text;html=1;strokeColor=none;fillColor=none;align=center;verticalAlign=middle;whiteSpace=wrap;rounded=0;fontColor=#D6B656;fontFamily=Comic Sans MS;fontSize=14;fontStyle=1" vertex="1" parent="1">
          <mxGeometry x="1100" y="1040" width="90" height="30" as="geometry" />
        </mxCell>
        <mxCell id="FL3PhiT9PTm7MLn6hLmr-99" value="true" style="text;html=1;strokeColor=none;fillColor=none;align=center;verticalAlign=middle;whiteSpace=wrap;rounded=0;fontFamily=Comic Sans MS;fontSize=14;" vertex="1" parent="1">
          <mxGeometry x="1030" y="1169" width="60" height="30" as="geometry" />
        </mxCell>
        <mxCell id="FL3PhiT9PTm7MLn6hLmr-100" value="false" style="text;html=1;strokeColor=none;fillColor=none;align=center;verticalAlign=middle;whiteSpace=wrap;rounded=0;fontFamily=Comic Sans MS;fontSize=14;" vertex="1" parent="1">
          <mxGeometry x="1070" y="1110" width="60" height="30" as="geometry" />
        </mxCell>
        <mxCell id="FL3PhiT9PTm7MLn6hLmr-103" value="" style="edgeStyle=orthogonalEdgeStyle;rounded=0;orthogonalLoop=1;jettySize=auto;html=1;" edge="1" parent="1" source="FL3PhiT9PTm7MLn6hLmr-101" target="FL3PhiT9PTm7MLn6hLmr-102">
          <mxGeometry relative="1" as="geometry" />
        </mxCell>
        <mxCell id="FL3PhiT9PTm7MLn6hLmr-101" value="e, ok := m.dirty[key]" style="whiteSpace=wrap;html=1;fontSize=14;fontFamily=Comic Sans MS;strokeWidth=2;" vertex="1" parent="1">
          <mxGeometry x="1241" y="1130" width="170" height="30" as="geometry" />
        </mxCell>
        <mxCell id="FL3PhiT9PTm7MLn6hLmr-109" value="" style="edgeStyle=orthogonalEdgeStyle;rounded=0;orthogonalLoop=1;jettySize=auto;html=1;" edge="1" parent="1" source="FL3PhiT9PTm7MLn6hLmr-102">
          <mxGeometry relative="1" as="geometry">
            <mxPoint x="1326" y="1370" as="targetPoint" />
          </mxGeometry>
        </mxCell>
        <mxCell id="FL3PhiT9PTm7MLn6hLmr-140" value="" style="edgeStyle=orthogonalEdgeStyle;rounded=0;orthogonalLoop=1;jettySize=auto;html=1;entryX=0;entryY=0.5;entryDx=0;entryDy=0;" edge="1" parent="1" source="FL3PhiT9PTm7MLn6hLmr-102" target="FL3PhiT9PTm7MLn6hLmr-130">
          <mxGeometry relative="1" as="geometry">
            <mxPoint x="1435.9999999999995" y="1225" as="targetPoint" />
          </mxGeometry>
        </mxCell>
        <mxCell id="FL3PhiT9PTm7MLn6hLmr-102" value="ok?" style="rhombus;whiteSpace=wrap;html=1;fontSize=14;fontFamily=Comic Sans MS;strokeWidth=2;" vertex="1" parent="1">
          <mxGeometry x="1281" y="1200" width="90" height="50" as="geometry" />
        </mxCell>
        <mxCell id="FL3PhiT9PTm7MLn6hLmr-129" value="" style="edgeStyle=orthogonalEdgeStyle;rounded=0;orthogonalLoop=1;jettySize=auto;html=1;" edge="1" parent="1" source="FL3PhiT9PTm7MLn6hLmr-106">
          <mxGeometry relative="1" as="geometry">
            <mxPoint x="790" y="1430" as="targetPoint" />
            <Array as="points">
              <mxPoint x="1190" y="1430" />
              <mxPoint x="790" y="1430" />
            </Array>
          </mxGeometry>
        </mxCell>
        <mxCell id="FL3PhiT9PTm7MLn6hLmr-106" value="e.storeLocked(&amp;amp;value)" style="whiteSpace=wrap;html=1;fontSize=14;fontFamily=Comic Sans MS;strokeWidth=2;" vertex="1" parent="1">
          <mxGeometry x="940" y="1375" width="500" height="30" as="geometry" />
        </mxCell>
        <mxCell id="FL3PhiT9PTm7MLn6hLmr-113" value="false" style="text;html=1;strokeColor=none;fillColor=none;align=center;verticalAlign=middle;whiteSpace=wrap;rounded=0;fontFamily=Comic Sans MS;fontSize=14;" vertex="1" parent="1">
          <mxGeometry x="820" y="930" width="60" height="30" as="geometry" />
        </mxCell>
        <mxCell id="FL3PhiT9PTm7MLn6hLmr-115" value="" style="edgeStyle=orthogonalEdgeStyle;rounded=0;orthogonalLoop=1;jettySize=auto;html=1;entryX=0.171;entryY=-0.128;entryDx=0;entryDy=0;entryPerimeter=0;" edge="1" parent="1" source="FL3PhiT9PTm7MLn6hLmr-114" target="FL3PhiT9PTm7MLn6hLmr-106">
          <mxGeometry relative="1" as="geometry" />
        </mxCell>
        <mxCell id="FL3PhiT9PTm7MLn6hLmr-117" value="" style="edgeStyle=orthogonalEdgeStyle;rounded=0;orthogonalLoop=1;jettySize=auto;html=1;entryX=0.5;entryY=0;entryDx=0;entryDy=0;" edge="1" parent="1" source="FL3PhiT9PTm7MLn6hLmr-114" target="FL3PhiT9PTm7MLn6hLmr-97">
          <mxGeometry relative="1" as="geometry">
            <mxPoint x="1235" y="1235" as="targetPoint" />
            <Array as="points">
              <mxPoint x="1175" y="1235" />
            </Array>
          </mxGeometry>
        </mxCell>
        <mxCell id="FL3PhiT9PTm7MLn6hLmr-114" value="e.unexpungeLocked()?" style="rhombus;whiteSpace=wrap;html=1;fontSize=14;fontFamily=Comic Sans MS;strokeWidth=2;" vertex="1" parent="1">
          <mxGeometry x="930" y="1210" width="190" height="50" as="geometry" />
        </mxCell>
        <mxCell id="FL3PhiT9PTm7MLn6hLmr-119" value="true" style="text;html=1;strokeColor=none;fillColor=none;align=center;verticalAlign=middle;whiteSpace=wrap;rounded=0;fontFamily=Comic Sans MS;fontSize=14;" vertex="1" parent="1">
          <mxGeometry x="1110" y="1199" width="60" height="30" as="geometry" />
        </mxCell>
        <mxCell id="FL3PhiT9PTm7MLn6hLmr-120" value="false" style="text;html=1;strokeColor=none;fillColor=none;align=center;verticalAlign=middle;whiteSpace=wrap;rounded=0;fontFamily=Comic Sans MS;fontSize=14;" vertex="1" parent="1">
          <mxGeometry x="970" y="1260" width="60" height="30" as="geometry" />
        </mxCell>
        <mxCell id="FL3PhiT9PTm7MLn6hLmr-122" value="key expunged， put entry into dirty" style="text;html=1;strokeColor=none;fillColor=#bac8d3;align=center;verticalAlign=middle;whiteSpace=wrap;rounded=0;fontFamily=Comic Sans MS;labelBackgroundColor=none;labelBorderColor=none;sketch=1;curveFitting=1;jiggle=2;glass=0;shadow=0;" vertex="1" parent="1">
          <mxGeometry x="1180" y="1250" width="120" height="30" as="geometry" />
        </mxCell>
        <mxCell id="FL3PhiT9PTm7MLn6hLmr-123" value="true" style="text;html=1;strokeColor=none;fillColor=none;align=center;verticalAlign=middle;whiteSpace=wrap;rounded=0;fontFamily=Comic Sans MS;fontSize=14;" vertex="1" parent="1">
          <mxGeometry x="1330" y="1250" width="60" height="30" as="geometry" />
        </mxCell>
        <mxCell id="FL3PhiT9PTm7MLn6hLmr-144" value="" style="edgeStyle=orthogonalEdgeStyle;rounded=0;orthogonalLoop=1;jettySize=auto;html=1;" edge="1" parent="1" source="FL3PhiT9PTm7MLn6hLmr-126">
          <mxGeometry relative="1" as="geometry">
            <mxPoint x="800" y="1470" as="targetPoint" />
            <Array as="points">
              <mxPoint x="1602" y="1470" />
            </Array>
          </mxGeometry>
        </mxCell>
        <mxCell id="FL3PhiT9PTm7MLn6hLmr-126" value="m.dirty[key] = newEntry(value)" style="whiteSpace=wrap;html=1;fontSize=14;fontFamily=Comic Sans MS;strokeWidth=2;" vertex="1" parent="1">
          <mxGeometry x="1484" y="1375" width="236" height="30" as="geometry" />
        </mxCell>
        <mxCell id="FL3PhiT9PTm7MLn6hLmr-127" value="new entry" style="text;html=1;strokeColor=none;fillColor=#bac8d3;align=center;verticalAlign=middle;whiteSpace=wrap;rounded=0;fontFamily=Comic Sans MS;labelBackgroundColor=none;labelBorderColor=none;sketch=1;curveFitting=1;jiggle=2;glass=0;shadow=0;" vertex="1" parent="1">
          <mxGeometry x="1735" y="1375" width="80" height="30" as="geometry" />
        </mxCell>
        <mxCell id="FL3PhiT9PTm7MLn6hLmr-134" value="" style="edgeStyle=orthogonalEdgeStyle;rounded=0;orthogonalLoop=1;jettySize=auto;html=1;entryX=0.5;entryY=0;entryDx=0;entryDy=0;" edge="1" parent="1" source="FL3PhiT9PTm7MLn6hLmr-130" target="FL3PhiT9PTm7MLn6hLmr-131">
          <mxGeometry relative="1" as="geometry" />
        </mxCell>
        <mxCell id="FL3PhiT9PTm7MLn6hLmr-136" value="" style="edgeStyle=orthogonalEdgeStyle;rounded=0;orthogonalLoop=1;jettySize=auto;html=1;" edge="1" parent="1" source="FL3PhiT9PTm7MLn6hLmr-130" target="FL3PhiT9PTm7MLn6hLmr-126">
          <mxGeometry relative="1" as="geometry" />
        </mxCell>
        <mxCell id="FL3PhiT9PTm7MLn6hLmr-130" value="!read.amended ？" style="rhombus;whiteSpace=wrap;html=1;fontSize=14;fontFamily=Comic Sans MS;strokeWidth=2;" vertex="1" parent="1">
          <mxGeometry x="1525.5" y="1190.5" width="153" height="69" as="geometry" />
        </mxCell>
        <mxCell id="FL3PhiT9PTm7MLn6hLmr-133" value="" style="edgeStyle=orthogonalEdgeStyle;rounded=0;orthogonalLoop=1;jettySize=auto;html=1;" edge="1" parent="1" source="FL3PhiT9PTm7MLn6hLmr-131" target="FL3PhiT9PTm7MLn6hLmr-132">
          <mxGeometry relative="1" as="geometry" />
        </mxCell>
        <mxCell id="FL3PhiT9PTm7MLn6hLmr-131" value="m.dirtyLocked()" style="whiteSpace=wrap;html=1;fontSize=14;fontFamily=Comic Sans MS;strokeWidth=2;" vertex="1" parent="1">
          <mxGeometry x="1690" y="1252.5" width="170" height="30" as="geometry" />
        </mxCell>
        <mxCell id="FL3PhiT9PTm7MLn6hLmr-135" value="" style="edgeStyle=orthogonalEdgeStyle;rounded=0;orthogonalLoop=1;jettySize=auto;html=1;" edge="1" parent="1" source="FL3PhiT9PTm7MLn6hLmr-132">
          <mxGeometry relative="1" as="geometry">
            <mxPoint x="1610" y="1350" as="targetPoint" />
            <Array as="points">
              <mxPoint x="1775" y="1350" />
            </Array>
          </mxGeometry>
        </mxCell>
        <mxCell id="FL3PhiT9PTm7MLn6hLmr-132" value="&lt;div style=&quot;text-align: left;&quot;&gt;&lt;span style=&quot;background-color: initial;&quot;&gt;set read.amended true&lt;/span&gt;&lt;/div&gt;" style="whiteSpace=wrap;html=1;fontSize=14;fontFamily=Comic Sans MS;strokeWidth=2;" vertex="1" parent="1">
          <mxGeometry x="1690" y="1307.5" width="170" height="30" as="geometry" />
        </mxCell>
        <mxCell id="FL3PhiT9PTm7MLn6hLmr-141" value="false" style="text;html=1;strokeColor=none;fillColor=none;align=center;verticalAlign=middle;whiteSpace=wrap;rounded=0;fontFamily=Comic Sans MS;fontSize=14;" vertex="1" parent="1">
          <mxGeometry x="1371" y="1199" width="60" height="30" as="geometry" />
        </mxCell>
        <mxCell id="FL3PhiT9PTm7MLn6hLmr-142" value="if dirty == nil，put read unexpunged entry into dirty" style="text;html=1;strokeColor=none;fillColor=#bac8d3;align=center;verticalAlign=middle;whiteSpace=wrap;rounded=0;fontFamily=Comic Sans MS;labelBackgroundColor=none;labelBorderColor=none;sketch=1;curveFitting=1;jiggle=2;glass=0;shadow=0;" vertex="1" parent="1">
          <mxGeometry x="1880" y="1242.5" width="130" height="50" as="geometry" />
        </mxCell>
        <mxCell id="FL3PhiT9PTm7MLn6hLmr-148" value="mu.Lock()" style="text;html=1;strokeColor=none;fillColor=none;align=center;verticalAlign=middle;whiteSpace=wrap;rounded=0;fontFamily=Comic Sans MS;fontSize=14;fontColor=#6B9455;fontStyle=0" vertex="1" parent="1">
          <mxGeometry x="920" y="1010" width="80" height="30" as="geometry" />
        </mxCell>
        <mxCell id="FL3PhiT9PTm7MLn6hLmr-149" value="mu.Unlock()" style="text;html=1;strokeColor=none;fillColor=none;align=center;verticalAlign=middle;whiteSpace=wrap;rounded=0;fontFamily=Comic Sans MS;fontSize=14;fontColor=#6B9455;fontStyle=0" vertex="1" parent="1">
          <mxGeometry x="920" y="1435" width="80" height="30" as="geometry" />
        </mxCell>
        <mxCell id="FL3PhiT9PTm7MLn6hLmr-152" value="" style="edgeStyle=orthogonalEdgeStyle;rounded=0;orthogonalLoop=1;jettySize=auto;html=1;" edge="1" parent="1" source="FL3PhiT9PTm7MLn6hLmr-150" target="FL3PhiT9PTm7MLn6hLmr-151">
          <mxGeometry relative="1" as="geometry" />
        </mxCell>
        <mxCell id="FL3PhiT9PTm7MLn6hLmr-150" value="Range" style="strokeWidth=2;html=1;shape=mxgraph.flowchart.start_1;whiteSpace=wrap;fontFamily=Comic Sans MS;fontSize=14;fontStyle=1" vertex="1" parent="1">
          <mxGeometry x="275" y="1630" width="100" height="60" as="geometry" />
        </mxCell>
        <mxCell id="FL3PhiT9PTm7MLn6hLmr-154" value="" style="edgeStyle=orthogonalEdgeStyle;rounded=0;orthogonalLoop=1;jettySize=auto;html=1;" edge="1" parent="1" source="FL3PhiT9PTm7MLn6hLmr-151" target="FL3PhiT9PTm7MLn6hLmr-153">
          <mxGeometry relative="1" as="geometry" />
        </mxCell>
        <mxCell id="FL3PhiT9PTm7MLn6hLmr-151" value="if read.amended do&lt;br&gt;flush dirty --&amp;gt; read" style="whiteSpace=wrap;html=1;fontSize=14;fontFamily=Comic Sans MS;strokeWidth=2;fillColor=#d5e8d4;strokeColor=#82b366;" vertex="1" parent="1">
          <mxGeometry x="240" y="1760" width="170" height="50" as="geometry" />
        </mxCell>
        <mxCell id="FL3PhiT9PTm7MLn6hLmr-156" value="" style="edgeStyle=orthogonalEdgeStyle;rounded=0;orthogonalLoop=1;jettySize=auto;html=1;" edge="1" parent="1" source="FL3PhiT9PTm7MLn6hLmr-153" target="FL3PhiT9PTm7MLn6hLmr-155">
          <mxGeometry relative="1" as="geometry" />
        </mxCell>
        <mxCell id="FL3PhiT9PTm7MLn6hLmr-153" value="for k, e := range read.m" style="whiteSpace=wrap;html=1;fontSize=14;fontFamily=Comic Sans MS;strokeWidth=2;" vertex="1" parent="1">
          <mxGeometry x="240" y="1880" width="170" height="50" as="geometry" />
        </mxCell>
        <mxCell id="FL3PhiT9PTm7MLn6hLmr-155" value="return" style="strokeWidth=2;html=1;shape=mxgraph.flowchart.start_1;whiteSpace=wrap;fontFamily=Comic Sans MS;fontSize=14;" vertex="1" parent="1">
          <mxGeometry x="265" y="2000" width="120" height="60" as="geometry" />
        </mxCell>
        <mxCell id="FL3PhiT9PTm7MLn6hLmr-157" value="" style="edgeStyle=orthogonalEdgeStyle;rounded=0;orthogonalLoop=1;jettySize=auto;html=1;" edge="1" parent="1" source="FL3PhiT9PTm7MLn6hLmr-158" target="FL3PhiT9PTm7MLn6hLmr-160">
          <mxGeometry relative="1" as="geometry" />
        </mxCell>
        <mxCell id="FL3PhiT9PTm7MLn6hLmr-158" value="Delete" style="strokeWidth=2;html=1;shape=mxgraph.flowchart.start_1;whiteSpace=wrap;fontFamily=Comic Sans MS;fontSize=14;fontStyle=1" vertex="1" parent="1">
          <mxGeometry x="-265" y="1630" width="100" height="60" as="geometry" />
        </mxCell>
        <mxCell id="FL3PhiT9PTm7MLn6hLmr-159" value="" style="edgeStyle=orthogonalEdgeStyle;rounded=0;orthogonalLoop=1;jettySize=auto;html=1;" edge="1" parent="1" source="FL3PhiT9PTm7MLn6hLmr-160" target="FL3PhiT9PTm7MLn6hLmr-162">
          <mxGeometry relative="1" as="geometry" />
        </mxCell>
        <mxCell id="FL3PhiT9PTm7MLn6hLmr-175" value="" style="edgeStyle=orthogonalEdgeStyle;rounded=0;orthogonalLoop=1;jettySize=auto;html=1;entryX=1;entryY=0.5;entryDx=0;entryDy=0;" edge="1" parent="1" source="FL3PhiT9PTm7MLn6hLmr-160" target="FL3PhiT9PTm7MLn6hLmr-164">
          <mxGeometry relative="1" as="geometry">
            <mxPoint x="40" y="2010" as="targetPoint" />
            <Array as="points">
              <mxPoint x="20" y="1775" />
              <mxPoint x="20" y="2005" />
            </Array>
          </mxGeometry>
        </mxCell>
        <mxCell id="FL3PhiT9PTm7MLn6hLmr-160" value="find key in read" style="whiteSpace=wrap;html=1;fontSize=14;fontFamily=Comic Sans MS;strokeWidth=2;" vertex="1" parent="1">
          <mxGeometry x="-300" y="1760" width="170" height="30" as="geometry" />
        </mxCell>
        <mxCell id="FL3PhiT9PTm7MLn6hLmr-169" value="" style="edgeStyle=orthogonalEdgeStyle;rounded=0;orthogonalLoop=1;jettySize=auto;html=1;entryX=0.5;entryY=0;entryDx=0;entryDy=0;" edge="1" parent="1" source="FL3PhiT9PTm7MLn6hLmr-162" target="FL3PhiT9PTm7MLn6hLmr-167">
          <mxGeometry relative="1" as="geometry">
            <mxPoint x="-25" y="1855" as="targetPoint" />
            <Array as="points">
              <mxPoint x="-82" y="1855" />
            </Array>
          </mxGeometry>
        </mxCell>
        <mxCell id="FL3PhiT9PTm7MLn6hLmr-177" value="" style="edgeStyle=orthogonalEdgeStyle;rounded=0;orthogonalLoop=1;jettySize=auto;html=1;entryX=0.5;entryY=0;entryDx=0;entryDy=0;entryPerimeter=0;" edge="1" parent="1" source="FL3PhiT9PTm7MLn6hLmr-162" target="FL3PhiT9PTm7MLn6hLmr-163">
          <mxGeometry relative="1" as="geometry">
            <mxPoint x="-215" y="1935" as="targetPoint" />
          </mxGeometry>
        </mxCell>
        <mxCell id="FL3PhiT9PTm7MLn6hLmr-162" value="find key in dirty" style="whiteSpace=wrap;html=1;fontSize=14;fontFamily=Comic Sans MS;strokeWidth=2;" vertex="1" parent="1">
          <mxGeometry x="-300" y="1840" width="170" height="30" as="geometry" />
        </mxCell>
        <mxCell id="FL3PhiT9PTm7MLn6hLmr-163" value="return" style="strokeWidth=2;html=1;shape=mxgraph.flowchart.start_1;whiteSpace=wrap;fontFamily=Comic Sans MS;fontSize=14;" vertex="1" parent="1">
          <mxGeometry x="-275" y="2060" width="120" height="60" as="geometry" />
        </mxCell>
        <mxCell id="FL3PhiT9PTm7MLn6hLmr-179" value="" style="edgeStyle=orthogonalEdgeStyle;rounded=0;orthogonalLoop=1;jettySize=auto;html=1;" edge="1" parent="1" source="FL3PhiT9PTm7MLn6hLmr-164">
          <mxGeometry relative="1" as="geometry">
            <mxPoint x="-210" y="2040" as="targetPoint" />
            <Array as="points">
              <mxPoint x="-82" y="2040" />
            </Array>
          </mxGeometry>
        </mxCell>
        <mxCell id="FL3PhiT9PTm7MLn6hLmr-164" value="delete entry" style="whiteSpace=wrap;html=1;fontSize=14;fontFamily=Comic Sans MS;strokeWidth=2;" vertex="1" parent="1">
          <mxGeometry x="-142.5" y="1990" width="120" height="30" as="geometry" />
        </mxCell>
        <mxCell id="FL3PhiT9PTm7MLn6hLmr-171" value="" style="edgeStyle=orthogonalEdgeStyle;rounded=0;orthogonalLoop=1;jettySize=auto;html=1;entryX=0.5;entryY=0;entryDx=0;entryDy=0;" edge="1" parent="1" source="FL3PhiT9PTm7MLn6hLmr-167" target="FL3PhiT9PTm7MLn6hLmr-164">
          <mxGeometry relative="1" as="geometry">
            <mxPoint x="-210" y="1970" as="targetPoint" />
            <Array as="points" />
          </mxGeometry>
        </mxCell>
        <mxCell id="FL3PhiT9PTm7MLn6hLmr-167" value="delete(dirty, key)" style="whiteSpace=wrap;html=1;fontSize=14;fontFamily=Comic Sans MS;strokeWidth=2;" vertex="1" parent="1">
          <mxGeometry x="-150" y="1910" width="135" height="30" as="geometry" />
        </mxCell>
        <mxCell id="FL3PhiT9PTm7MLn6hLmr-172" value="No" style="text;html=1;strokeColor=none;fillColor=none;align=center;verticalAlign=middle;whiteSpace=wrap;rounded=0;fontFamily=Comic Sans MS;fontSize=14;" vertex="1" parent="1">
          <mxGeometry x="-210" y="1800" width="45" height="30" as="geometry" />
        </mxCell>
        <mxCell id="FL3PhiT9PTm7MLn6hLmr-173" value="No" style="text;html=1;strokeColor=none;fillColor=none;align=center;verticalAlign=middle;whiteSpace=wrap;rounded=0;fontFamily=Comic Sans MS;fontSize=14;" vertex="1" parent="1">
          <mxGeometry x="-210" y="1880" width="45" height="30" as="geometry" />
        </mxCell>
      </root>
    </mxGraphModel>
  </diagram>
</mxfile>
